<svg width="24" height="24" viewBox="0 0 24 24" fill="none" xmlns="http://www.w3.org/2000/svg">
<g id="icons / bx-code-alt">
<path id="Vector" d="M7.375 16.7808L8.625 15.2188L4.601 11.9998L8.625 8.78075L7.375 7.21875L2.375 11.2188C2.138 11.4088 2 11.6958 2 11.9998C2 12.3038 2.138 12.5908 2.375 12.7808L7.375 16.7808ZM16.625 7.21875L15.375 8.78075L19.399 11.9998L15.375 15.2188L16.625 16.7808L21.625 12.7808C21.862 12.5908 22 12.3038 22 11.9998C22 11.6958 21.862 11.4088 21.625 11.2188L16.625 7.21875Z" fill="#808080"/>
<path id="Vector_2" d="M14.9766 3.2168L10.9771 21.2168L9.02379 20.7828L13.0232 2.78278L14.9766 3.2168Z" fill="#808080"/>
</g>
</svg>
