<svg width="20" height="20" viewBox="0 0 20 20" fill="none" xmlns="http://www.w3.org/2000/svg">
<g id="icons / bx-message-square-detail">
<path id="Vector" d="M13.3332 1.66666H6.6665C3.909 1.66666 1.6665 3.90916 1.6665 6.66666V17.5C1.6665 17.9608 2.039 18.3333 2.49984 18.3333H13.3332C16.0907 18.3333 18.3332 16.0908 18.3332 13.3333V6.66666C18.3332 3.90916 16.0907 1.66666 13.3332 1.66666ZM16.6665 13.3333C16.6665 15.1717 15.1715 16.6667 13.3332 16.6667H3.33317V6.66666C3.33317 4.82832 4.82817 3.33332 6.6665 3.33332H13.3332C15.1715 3.33332 16.6665 4.82832 16.6665 6.66666V13.3333Z" fill="#808080"/>
<path id="Vector_2" d="M5.8335 7.5H14.1668V9.16667H5.8335V7.5ZM5.8335 10.8333H11.6668V12.5H5.8335V10.8333Z" fill="#808080"/>
</g>
</svg>
